<?xml version="1.0" standalone="no"?>
<!DOCTYPE svg PUBLIC "-//W3C//DTD SVG 20010904//EN"
 "http://www.w3.org/TR/2001/REC-SVG-20010904/DTD/svg10.dtd">
<svg version="1.0" xmlns="http://www.w3.org/2000/svg"
 width="2116.000000pt" height="2116.000000pt" viewBox="0 0 2116.000000 2116.000000"
 preserveAspectRatio="xMidYMid meet">
<metadata>
Created by potrace 1.14, written by Peter Selinger 2001-2017
</metadata>
<g transform="translate(0.000000,2116.000000) scale(0.100000,-0.100000)"
fill="#000000" stroke="none">
<path d="M9975 15444 c-16 -8 -39 -24 -51 -35 -11 -10 -26 -19 -32 -19 -7 0
-12 -4 -12 -10 0 -5 -4 -10 -10 -10 -5 0 -18 -7 -27 -15 -10 -8 -22 -15 -27
-14 -5 0 -12 -4 -15 -9 -14 -22 -261 -159 -261 -145 0 4 -4 3 -8 -3 -8 -12
-123 -60 -134 -56 -5 1 -8 -3 -8 -10 0 -6 -3 -9 -6 -6 -3 3 -28 -2 -56 -13
-28 -10 -64 -20 -82 -23 -17 -3 -53 -10 -79 -15 -83 -15 -262 -5 -397 23 -8 2
-21 -1 -27 -7 -7 -5 -13 -6 -13 -2 0 15 -41 -39 -46 -61 -6 -24 21 -130 38
-151 6 -7 8 -13 5 -13 -13 0 50 -144 68 -154 11 -6 22 -13 25 -16 3 -3 547 -6
1209 -5 l1203 0 27 32 c14 17 35 60 45 95 23 76 21 70 29 88 26 62 33 98 24
126 -16 46 -54 73 -92 64 -67 -15 -219 -28 -290 -25 -101 5 -130 9 -212 32 -7
1 -19 4 -25 6 -7 1 -19 6 -25 10 -7 5 -13 6 -13 2 0 -3 -18 4 -40 15 -22 11
-40 18 -40 15 0 -3 -27 8 -60 25 -33 17 -60 27 -60 24 0 -4 -6 -2 -12 4 -7 6
-43 26 -81 46 -93 50 -109 59 -125 74 -7 6 -17 12 -22 12 -5 0 -15 6 -22 13
-7 6 -25 18 -40 26 -15 8 -37 22 -47 33 -11 10 -24 18 -30 18 -5 0 -11 3 -13
8 -5 12 -65 42 -85 42 -10 0 -31 -7 -48 -16z"/>
<path d="M65 14409 c-51 -14 -79 -74 -55 -120 17 -33 1782 -1799 1798 -1799 6
0 12 -4 12 -10 0 -6 9 -6 22 -1 13 4 35 5 50 0 16 -4 41 -4 57 1 16 4 32 6 35
3 9 -10 66 -11 66 -2 0 5 6 6 13 3 22 -8 247 -10 247 -2 0 4 6 5 14 2 27 -10
226 -9 230 1 3 6 5 5 5 -2 1 -8 10 -9 30 -3 16 4 32 6 35 3 9 -10 66 -11 66
-2 0 5 6 6 13 3 22 -8 247 -10 247 -2 0 4 6 5 14 2 20 -8 226 -10 226 -3 0 7
56 2 78 -6 6 -2 12 1 12 7 0 7 4 7 13 1 6 -6 21 -9 32 -7 35 7 93 7 104 0 6
-4 11 -2 11 4 0 6 5 8 12 4 16 -10 66 -12 100 -3 14 4 29 5 32 2 9 -10 66 -11
66 -2 0 5 6 6 13 3 22 -8 247 -10 247 -2 0 4 6 5 14 2 20 -8 226 -10 226 -3 0
7 56 2 78 -6 6 -2 12 1 12 7 0 7 4 7 13 1 6 -6 21 -9 32 -7 35 7 93 7 104 0 6
-4 11 -2 11 4 0 6 5 8 12 4 16 -10 66 -12 100 -3 14 4 29 5 32 2 9 -10 66 -11
66 -2 0 5 7 6 14 3 28 -11 486 -9 490 1 3 6 5 5 5 -2 1 -8 10 -9 30 -3 16 4
32 6 35 3 9 -10 66 -11 66 -2 0 5 6 6 13 4 21 -8 227 -11 227 -3 0 4 6 5 13 2
27 -10 247 -9 250 1 3 6 9 6 18 -1 8 -6 23 -10 34 -8 35 7 93 7 104 0 6 -4 11
-2 11 5 0 8 4 8 13 2 6 -6 21 -9 32 -7 33 7 93 7 103 0 5 -3 23 -1 40 3 17 5
33 7 36 4 9 -10 66 -11 66 -2 0 5 6 6 13 3 7 -2 70 -6 139 -7 l126 -2 371
-371 c204 -204 371 -375 372 -380 0 -5 2 -18 4 -28 6 -29 -18 -66 -75 -120
-48 -45 -55 -48 -92 -43 -37 5 -64 30 -356 322 -174 174 -325 322 -336 328
-12 6 -38 12 -58 13 -20 1 -44 4 -52 7 -8 3 -17 3 -20 0 -5 -5 -125 -7 -143
-3 -5 1 -12 1 -18 0 -22 -5 -124 -2 -134 5 -6 3 -11 3 -11 -2 0 -4 -33 -7 -72
-5 -40 1 -77 3 -83 3 -5 -1 -41 -1 -80 -2 -38 0 -74 0 -80 1 -5 1 -14 1 -20 0
-22 -5 -124 -2 -134 5 -6 3 -11 3 -11 -2 0 -9 -83 -8 -106 1 -8 3 -14 2 -14
-2 0 -6 -143 -7 -160 -2 -3 1 -25 1 -50 0 -117 -5 -180 -4 -180 2 0 4 -7 5
-15 2 -23 -9 -225 -10 -225 -1 0 5 -5 5 -10 2 -6 -4 -34 -6 -63 -6 -109 1
-143 1 -182 0 -22 0 -44 0 -50 1 -5 1 -14 1 -20 0 -5 -1 -32 -2 -60 -2 -27 0
-54 1 -60 2 -5 1 -12 2 -15 1 -17 -7 -140 -5 -140 2 0 5 -5 5 -11 2 -9 -6
-122 -10 -144 -5 -5 1 -14 1 -20 0 -25 -5 -175 -1 -185 5 -5 3 -10 3 -10 -2 0
-7 -124 -9 -155 -3 -5 1 -14 1 -20 0 -5 -1 -28 -1 -50 -1 -22 0 -58 1 -80 1
-22 0 -58 -1 -80 -1 -22 0 -44 0 -50 1 -5 1 -14 1 -20 0 -22 -5 -124 -2 -134
5 -6 3 -11 3 -11 -2 0 -4 -33 -7 -72 -5 -40 1 -80 2 -88 2 -142 -2 -181 -1
-189 5 -6 3 -11 3 -11 -2 0 -7 -143 -9 -160 -3 -3 2 -9 2 -14 1 -5 -1 -52 -2
-105 -1 -239 2 -251 -1 -277 -60 -25 -57 -66 -13 919 -986 114 -113 207 -210
207 -215 0 -5 4 -9 9 -9 5 0 109 -98 230 -219 161 -160 228 -220 248 -222 16
-2 514 -4 1108 -3 l1080 0 334 -332 c327 -326 333 -333 338 -378 4 -31 2 -46
-6 -46 -6 0 -11 -4 -11 -10 0 -10 -47 -60 -56 -60 -3 0 -13 -9 -22 -20 -21
-24 -68 -33 -96 -18 -12 6 -147 137 -301 291 -154 154 -289 283 -300 287 -11
4 -386 6 -833 6 l-814 -1 -24 -28 c-16 -19 -24 -40 -24 -65 0 -35 35 -71 903
-938 l902 -902 994 0 993 0 23 -24 c32 -35 37 -66 40 -253 2 -93 6 -195 9
-225 3 -30 8 -77 11 -105 7 -72 12 -103 25 -160 6 -27 13 -58 15 -68 24 -118
124 -298 217 -391 26 -26 48 -53 48 -59 0 -6 3 -8 6 -4 3 3 16 -3 28 -15 60
-57 183 -128 371 -213 132 -60 194 -90 218 -107 15 -11 27 -16 27 -11 0 4 4 3
8 -3 4 -6 30 -24 57 -40 28 -15 56 -34 63 -41 7 -7 17 -13 21 -13 4 0 21 -11
37 -25 16 -14 32 -25 37 -25 4 0 15 -8 25 -17 10 -10 40 -36 67 -58 67 -55
212 -201 255 -255 19 -25 37 -47 40 -50 22 -19 127 -183 170 -265 29 -55 63
-110 77 -122 l24 -23 850 0 c940 0 900 -3 917 63 5 17 7 55 5 82 -2 28 -5 77
-8 110 -2 33 -4 60 -5 60 -1 0 -3 16 -6 35 -12 102 -62 295 -98 381 -8 19 -15
37 -15 41 -1 5 -19 41 -40 82 -21 41 -36 77 -33 80 3 3 1 6 -5 6 -6 0 -16 13
-23 30 -7 17 -16 30 -21 30 -5 0 -9 6 -9 13 0 12 -17 36 -72 102 -16 18 -28
35 -28 39 0 14 -232 236 -248 236 -4 1 -23 14 -42 30 -19 17 -40 30 -46 30 -7
0 -14 7 -18 15 -3 8 -12 15 -20 15 -8 0 -21 6 -28 13 -7 7 -48 30 -90 51 -42
21 -80 41 -83 44 -3 3 -11 7 -18 8 -7 1 -37 13 -67 26 -30 14 -122 46 -205 73
-82 26 -157 50 -165 53 -8 3 -17 6 -20 7 -13 5 -47 18 -65 25 -11 5 -38 14
-60 21 -22 6 -42 15 -45 18 -3 3 -23 12 -45 20 -36 12 -249 115 -301 144 -63
37 -174 112 -174 119 0 4 -7 8 -15 8 -7 0 -18 6 -22 13 -4 7 -21 23 -38 34
-26 19 -85 76 -162 160 -13 13 -23 28 -23 33 0 4 -3 10 -7 12 -12 5 -63 75
-63 85 0 5 -9 19 -20 31 -12 12 -18 22 -15 22 4 0 -2 12 -13 28 -11 15 -23 38
-27 52 -4 14 -13 34 -20 45 -6 11 -17 38 -24 60 -7 22 -15 47 -18 55 -3 8 -7
20 -9 25 -2 6 -10 35 -19 65 -9 30 -18 64 -20 75 -2 11 -4 21 -5 23 -3 2 -4 5
-13 52 -4 19 -10 46 -13 60 -3 14 -7 39 -10 55 -24 145 -66 300 -104 381 -54
115 -99 165 -546 604 -93 91 -198 199 -234 240 -36 41 -77 88 -92 105 -16 16
-28 34 -28 38 0 4 -11 20 -25 35 -14 15 -25 32 -25 39 0 6 -4 13 -9 15 -21 8
-113 227 -124 295 -1 10 -5 23 -9 28 -3 6 -9 32 -12 59 -4 27 -11 57 -16 66
-5 10 -7 20 -4 22 2 3 0 27 -5 54 -16 78 -33 276 -35 414 -1 36 -5 68 -11 72
-7 5 -7 8 0 8 6 0 10 39 9 97 -1 148 15 168 132 166 92 -1 127 -18 139 -63 4
-14 9 -113 11 -220 2 -107 6 -215 8 -240 7 -81 18 -175 23 -195 2 -11 5 -27 5
-35 0 -8 4 -31 9 -50 4 -19 10 -48 13 -65 14 -81 98 -285 118 -285 4 0 8 -5 8
-11 0 -10 40 -62 115 -149 17 -19 179 -183 361 -365 182 -181 352 -358 377
-392 50 -65 117 -192 137 -258 7 -22 16 -47 20 -56 8 -16 33 -125 33 -146 0
-7 3 -13 6 -13 4 0 7 -10 9 -22 1 -13 9 -59 17 -103 9 -44 19 -93 21 -110 3
-16 14 -64 25 -105 11 -41 21 -79 22 -85 20 -74 105 -258 135 -291 10 -10 25
-30 35 -44 25 -35 128 -141 167 -170 19 -14 46 -35 61 -47 15 -13 29 -23 32
-23 3 0 28 -16 57 -35 59 -39 311 -165 332 -165 8 0 18 -4 24 -9 8 -8 264
-101 289 -105 6 -1 16 -5 23 -9 6 -5 12 -6 12 -3 0 2 24 -5 53 -15 28 -11 59
-22 67 -24 25 -6 152 -55 174 -68 12 -6 23 -11 26 -12 12 -1 126 -59 131 -67
3 -5 13 -10 22 -12 20 -3 227 -138 227 -148 0 -5 6 -8 13 -8 19 -1 216 -184
267 -250 14 -18 30 -37 35 -44 35 -40 95 -125 95 -134 0 -7 4 -12 9 -12 5 0
13 -9 16 -20 3 -11 12 -26 18 -32 16 -17 111 -212 128 -263 7 -22 16 -44 20
-50 4 -5 13 -30 20 -55 15 -55 14 -52 22 -70 3 -8 9 -28 13 -45 4 -16 8 -34
10 -40 2 -9 6 -29 17 -80 5 -21 22 -133 32 -200 3 -22 8 -78 10 -125 7 -122
13 -147 42 -170 25 -20 37 -20 620 -20 544 0 597 1 624 17 16 10 32 26 35 38
14 42 24 416 12 409 -4 -3 -4 6 1 19 6 14 8 27 6 29 -3 3 -15 183 -18 276 0 6
-3 12 -6 12 -3 0 -6 21 -7 48 -1 26 -4 65 -8 87 -4 22 -10 56 -12 75 -9 66
-44 230 -70 322 -14 51 -28 102 -31 113 -2 11 -7 27 -11 35 -3 8 -6 17 -7 20
-4 17 -28 88 -35 105 -4 11 -25 61 -45 110 -44 107 -102 227 -150 310 -19 33
-40 71 -47 85 -7 14 -15 27 -18 30 -9 9 -70 100 -70 105 0 3 -7 13 -15 22 -8
10 -36 47 -62 83 -26 36 -59 78 -73 94 -117 136 -219 236 -345 341 -75 63
-230 175 -242 175 -3 0 -19 10 -36 22 -18 13 -34 23 -37 24 -10 1 -355 176
-367 186 -7 6 -13 7 -13 3 0 -4 -6 -3 -12 3 -7 5 -34 22 -60 36 -27 14 -69 38
-95 52 -27 15 -73 40 -103 57 -30 16 -61 35 -69 41 -15 12 -48 32 -71 42 -8 4
-34 20 -57 36 -23 15 -46 28 -52 28 -6 0 -11 4 -11 9 0 5 -13 14 -30 21 -16 7
-30 16 -30 21 0 5 -7 9 -15 9 -8 0 -15 5 -15 10 0 6 -7 10 -15 10 -8 0 -15 5
-15 10 0 6 -6 10 -14 10 -8 0 -16 3 -18 8 -2 4 -32 27 -68 52 -36 24 -69 48
-75 52 -5 5 -39 31 -75 59 -173 135 -208 167 -365 325 -145 147 -151 153 -220
244 -28 35 -58 73 -67 84 -10 11 -18 26 -18 33 0 7 -4 13 -8 13 -5 0 -14 10
-21 23 -6 12 -19 34 -29 49 -62 95 -146 264 -198 398 -20 52 -37 100 -38 105
-2 6 -12 42 -24 80 -21 68 -50 177 -57 212 -1 10 -8 38 -15 63 -7 25 -13 52
-15 60 -21 106 -90 309 -109 322 -6 4 -7 8 -2 8 5 0 3 7 -4 15 -7 8 -9 15 -4
15 5 0 5 4 -1 8 -5 4 -28 43 -49 87 -65 131 -207 338 -251 367 -6 4 -47 42
-92 85 -44 43 -167 161 -273 263 -106 102 -236 227 -288 278 -53 50 -97 92
-97 92 -2 0 -220 210 -413 398 -58 56 -107 102 -108 102 -2 0 -67 63 -370 356
-57 55 -104 100 -104 99 0 -1 -51 48 -114 109 -63 61 -181 174 -261 251 -80
77 -201 193 -268 258 -67 65 -133 126 -147 135 -22 16 -255 17 -3292 17 -1797
0 -3279 -3 -3293 -6z"/>
<path d="M14528 14407 c-12 -4 -333 -319 -714 -700 -494 -495 -697 -704 -709
-732 -10 -22 -18 -58 -20 -81 -1 -23 -5 -46 -9 -52 -3 -6 -3 -13 2 -16 8 -5 7
-98 -2 -121 -3 -8 -2 -15 2 -15 10 0 8 -62 -2 -78 -4 -7 -4 -18 0 -24 8 -12 7
-58 -2 -102 -2 -12 -7 -36 -10 -53 -3 -18 -9 -33 -13 -33 -4 0 -7 -9 -8 -21
-2 -23 -58 -115 -85 -140 -10 -9 -18 -21 -18 -28 0 -6 -4 -11 -9 -11 -5 0 -23
-12 -39 -27 -42 -39 -101 -76 -142 -88 -3 -1 -12 -5 -20 -8 -22 -9 -79 -20
-165 -32 -77 -10 -92 -13 -151 -26 -64 -14 -62 -13 -84 -21 -8 -3 -49 -16 -90
-29 -99 -31 -232 -94 -268 -126 -7 -7 -16 -13 -20 -13 -12 0 -118 -104 -154
-150 -54 -71 -99 -175 -113 -265 -8 -49 -10 -231 -3 -265 22 -99 34 -140 40
-140 5 0 8 -7 8 -16 0 -28 67 -128 125 -187 30 -32 58 -57 62 -57 5 0 22 -13
38 -28 47 -43 266 -143 365 -167 95 -23 151 -35 180 -40 19 -3 49 -8 65 -11
32 -6 71 -10 180 -20 66 -5 77 -6 108 -3 35 3 122 -12 143 -26 26 -17 36 -57
37 -146 1 -47 -3 -63 -21 -82 -12 -13 -29 -24 -37 -25 -42 -5 -169 -4 -240 2
-44 4 -100 9 -125 11 -25 2 -52 6 -60 8 -8 3 -35 8 -60 11 -25 3 -79 13 -120
22 -41 9 -81 16 -87 17 -7 0 -13 4 -13 9 0 5 -3 7 -8 5 -4 -3 -39 6 -77 19
-39 14 -78 26 -88 29 -32 7 -208 94 -254 125 -24 17 -46 30 -49 30 -2 0 -13 8
-23 18 -11 9 -39 33 -62 52 -23 19 -69 66 -101 105 -73 87 -68 80 -98 140 -14
28 -27 52 -30 55 -5 5 -40 96 -44 115 -1 6 -6 20 -10 32 -27 82 -40 334 -22
433 13 72 29 134 48 184 10 28 20 56 21 61 1 6 4 12 8 15 3 3 13 21 22 40 22
43 38 70 55 88 6 7 12 17 12 21 0 15 147 158 210 204 105 78 413 219 440 202
5 -3 11 -1 14 4 3 4 20 12 38 16 18 4 38 9 43 10 6 2 26 6 45 9 19 4 46 9 60
12 14 3 42 6 62 7 21 1 38 4 38 7 0 3 16 6 36 7 88 5 182 60 217 129 8 16 18
49 22 74 8 48 9 961 1 995 -11 49 -37 93 -76 129 -47 44 -97 65 -147 62 -18
-1 -33 1 -33 4 0 3 -10 6 -22 7 -28 0 -211 14 -253 18 -16 2 -58 4 -92 6 -35
1 -63 5 -63 8 0 3 -29 6 -65 6 -36 0 -65 2 -65 5 0 3 -26 6 -58 6 -52 2 -130
8 -252 19 -113 10 -192 47 -264 122 -48 49 -97 153 -101 211 -2 26 -7 58 -10
72 -3 14 -7 31 -9 38 -1 7 -10 22 -19 32 -9 11 -14 20 -10 20 6 0 -27 32 -76
72 -32 26 -122 34 -393 34 -179 -1 -278 3 -278 9 0 7 -3 7 -8 0 -9 -12 -132
-15 -132 -3 0 5 -6 6 -12 1 -18 -11 -898 -10 -898 1 0 5 -6 4 -12 -1 -15 -11
-28 -11 -45 0 -7 5 -13 5 -13 0 0 -4 -29 -8 -65 -8 -36 0 -65 3 -65 8 0 4 -8
4 -17 -1 -10 -5 -36 -8 -58 -6 -80 5 -91 5 -175 0 -47 -2 -97 -9 -111 -15 -15
-5 -29 -7 -32 -4 -3 3 -12 1 -19 -3 -7 -5 -15 -9 -18 -9 -41 -5 -170 -104
-170 -132 0 -7 -4 -13 -8 -13 -5 0 -16 -23 -25 -52 -14 -43 -16 -82 -12 -218
3 -91 7 -190 10 -220 3 -30 8 -75 10 -100 2 -25 4 -45 5 -45 2 0 9 -46 15 -95
3 -32 6 -50 20 -130 8 -45 16 -82 36 -164 11 -45 22 -92 25 -106 20 -95 125
-332 159 -360 8 -7 15 -16 15 -21 0 -9 20 -35 68 -87 12 -14 22 -28 22 -31 0
-3 15 -22 33 -42 35 -40 51 -59 116 -139 55 -68 56 -69 194 -212 105 -109 166
-178 212 -242 11 -15 28 -37 38 -48 9 -12 17 -27 17 -35 0 -7 3 -13 8 -13 4 0
18 -20 32 -45 14 -25 28 -45 32 -45 5 0 7 -3 6 -7 -1 -5 15 -44 36 -88 21 -44
44 -98 53 -120 8 -22 19 -49 24 -60 5 -11 11 -29 12 -40 2 -11 7 -27 10 -35
15 -38 35 -120 29 -120 -3 0 -1 -5 5 -11 6 -6 9 -18 6 -25 -3 -8 0 -14 7 -14
6 0 9 -4 6 -8 -3 -4 4 -42 15 -83 20 -74 23 -89 34 -144 3 -16 10 -34 14 -40
4 -5 7 -17 6 -25 -1 -8 5 -27 12 -42 7 -15 13 -31 13 -35 0 -23 49 -160 84
-232 11 -25 21 -47 21 -50 2 -18 85 -168 136 -244 32 -48 59 -90 59 -93 0 -3
10 -16 23 -29 12 -13 33 -39 47 -56 54 -70 99 -118 201 -219 97 -95 139 -133
206 -187 12 -10 30 -25 41 -34 11 -9 55 -43 98 -75 44 -32 81 -61 84 -64 3 -3
12 -9 21 -15 9 -5 49 -32 90 -60 40 -27 80 -54 88 -60 9 -5 34 -22 56 -36 22
-14 47 -29 55 -32 8 -4 43 -25 77 -46 35 -22 72 -42 83 -46 11 -3 20 -10 20
-15 0 -4 8 -10 18 -13 9 -4 58 -29 107 -56 50 -28 182 -96 295 -152 187 -94
358 -185 370 -198 7 -8 41 -29 60 -38 8 -4 20 -11 25 -15 6 -5 42 -33 82 -63
39 -30 82 -62 95 -72 39 -30 327 -322 344 -349 36 -54 -18 -52 1179 -52 l1110
0 95 94 c52 52 98 94 102 94 3 0 10 9 13 20 3 11 12 20 18 20 7 1 26 18 42 39
17 21 42 47 57 57 16 11 28 22 28 25 0 9 143 149 152 149 4 0 8 4 8 8 0 10
295 305 310 310 5 2 10 7 10 11 0 10 151 161 161 161 4 0 9 5 11 11 2 6 182
189 401 408 383 383 397 398 397 435 0 29 -7 44 -29 65 l-29 27 -814 -1 c-447
-1 -818 -3 -823 -3 -6 -1 -137 -128 -290 -282 -154 -155 -287 -285 -296 -290
-9 -5 -31 -12 -48 -15 -28 -5 -38 1 -96 58 -57 55 -65 67 -65 101 0 36 13 50
328 366 181 181 339 333 353 338 13 5 497 9 1117 8 600 -1 1092 1 1092 4 0 3
16 14 35 24 19 11 35 22 35 26 0 10 142 150 152 150 4 0 8 4 8 9 0 9 215 224
230 229 6 2 10 7 10 11 0 10 312 321 322 321 4 0 8 4 8 8 0 5 174 181 386 393
212 211 392 397 399 413 24 55 -18 125 -75 126 -14 0 -32 0 -40 0 -8 0 -48 0
-88 -1 -39 -1 -75 0 -78 4 -3 3 -12 3 -20 0 -22 -8 -134 -9 -134 0 0 5 -5 5
-10 2 -10 -6 -132 -10 -155 -5 -5 1 -12 2 -15 1 -17 -7 -140 -5 -140 2 0 5 -5
5 -10 2 -10 -6 -132 -10 -155 -5 -5 1 -12 1 -15 0 -17 -6 -230 -4 -230 3 0 5
-5 5 -10 2 -6 -4 -34 -6 -63 -6 -29 1 -59 1 -67 1 -8 0 -46 0 -85 -1 -38 0
-74 0 -80 1 -5 1 -14 1 -20 0 -22 -5 -124 -2 -134 5 -6 3 -11 3 -11 -2 0 -9
-83 -8 -106 1 -8 3 -14 2 -14 -2 0 -6 -127 -8 -155 -2 -5 1 -14 1 -20 0 -5 -1
-28 -1 -50 -1 -51 1 -109 1 -160 0 -22 0 -44 0 -50 1 -5 1 -14 1 -20 0 -22 -5
-124 -2 -134 5 -6 3 -11 3 -11 -2 0 -7 -124 -9 -155 -3 -5 1 -12 2 -15 1 -17
-7 -140 -5 -140 2 0 5 -5 5 -11 1 -6 -3 -39 -6 -74 -6 -35 0 -68 3 -74 6 -6 4
-11 4 -11 -1 0 -4 -43 -8 -95 -8 -52 0 -95 4 -95 8 0 5 -5 5 -10 2 -6 -4 -34
-6 -63 -6 -109 1 -143 1 -182 0 -22 0 -44 0 -50 1 -5 1 -14 1 -20 0 -5 -1 -32
-2 -60 -2 -27 0 -54 1 -60 2 -5 1 -12 2 -15 1 -19 -7 -150 -4 -150 2 0 5 -5 5
-10 2 -10 -6 -132 -10 -155 -5 -5 1 -12 2 -15 1 -16 -6 -200 -5 -200 1 0 4 -6
5 -12 3 -7 -2 -37 -6 -66 -9 -29 -2 -56 -7 -60 -10 -4 -3 -152 -150 -328 -327
-299 -298 -325 -321 -362 -326 -40 -5 -44 -3 -102 53 -60 59 -71 83 -58 135 4
18 738 758 738 745 0 -5 6 -4 13 2 8 7 75 11 177 10 91 0 170 1 175 2 6 1 12
1 15 0 15 -6 73 -4 77 3 2 4 9 4 15 1 14 -9 119 -11 124 -3 2 4 19 4 36 0 18
-4 44 -4 58 -1 14 4 37 3 53 -1 17 -5 27 -4 27 3 0 7 4 7 13 1 6 -6 21 -9 32
-7 35 7 93 7 104 0 6 -4 11 -2 11 4 0 6 5 8 12 4 16 -10 66 -12 100 -3 14 4
29 5 32 2 9 -10 66 -11 66 -2 0 5 6 6 13 3 22 -8 247 -10 247 -2 0 4 6 5 14 2
20 -8 226 -10 226 -3 0 7 56 2 78 -6 6 -2 12 1 12 7 0 7 4 7 13 1 6 -6 21 -9
32 -7 35 7 93 7 104 0 6 -4 11 -2 11 5 0 7 4 8 13 2 11 -9 75 -8 84 1 3 2 18
0 34 -4 19 -6 29 -5 29 2 0 7 4 7 13 1 6 -6 21 -9 32 -7 35 7 93 7 104 0 6 -4
11 -2 11 4 0 6 5 8 12 4 16 -10 66 -12 100 -3 14 4 29 5 32 2 9 -10 66 -11 66
-2 0 5 6 6 13 4 21 -8 227 -11 227 -3 0 4 6 5 13 2 27 -10 247 -9 250 1 3 6 9
6 18 -1 8 -6 23 -10 34 -8 35 7 93 7 104 0 6 -4 11 -2 11 5 0 8 4 8 13 2 6 -6
21 -9 32 -7 22 5 38 5 212 2 68 -1 125 1 128 4 4 3 21 2 39 -2 19 -4 40 -4 47
1 7 4 17 5 23 2 14 -9 67 -9 73 0 2 4 9 4 15 1 15 -9 119 -10 125 -1 2 4 9 5
14 2 12 -8 297 -10 304 -3 3 3 21 2 39 -2 19 -4 40 -4 47 1 7 4 17 5 23 2 14
-9 67 -9 73 0 2 4 9 5 14 1 16 -9 109 -10 109 -1 0 4 4 5 10 2 14 -8 134 -10
148 -2 6 4 13 3 16 -2 4 -5 16 -8 29 -5 12 2 33 6 46 9 14 2 106 87 222 202
109 109 203 199 208 201 6 2 11 7 11 11 0 4 308 316 685 693 529 529 686 692
691 716 7 36 -20 88 -51 99 -28 10 -6551 10 -6577 0z m-3659 -817 c24 -29 23
-24 25 -117 1 -40 -2 -73 -6 -73 -4 0 -7 -5 -5 -11 5 -22 -48 -49 -100 -52
-29 -2 -53 1 -53 5 0 5 -5 6 -12 2 -18 -12 -228 -11 -228 1 0 7 -3 7 -8 0 -8
-12 -232 -14 -232 -2 0 5 -5 5 -12 1 -10 -7 -129 -10 -143 -4 -3 2 -8 3 -12 4
-17 3 -50 32 -57 51 -12 29 -7 146 7 175 22 46 35 47 436 46 l379 -1 21 -25z"/>
</g>
</svg>
