<?xml version="1.0" encoding="UTF-8"?>
<svg id="Laag_1" data-name="Laag 1" xmlns="http://www.w3.org/2000/svg" viewBox="0 0 384.67 480.21">
  <defs>
    <style>
      .cls-1 {
        fill: #000;
        stroke-width: 0px;
      }
    </style>
  </defs>
  <path class="cls-1" d="M6.21,430.93h1.53c6.35,0,7.96-4.3,7.96-8.3v-6.23l129.55,12.84,4.89,29.76c5.62-4.44,9.08,16.65,9.08,16.65,12.95,10.3,33.19-.08,33.19-.08,0,0,19.31,10.38,32.26.08,0,0,3.46-21.1,9.08-16.65l4.89-29.76,130.31-12.91v6.3c0,4-.14,8.3,6.21,8.3h1.53c6.35,0,7.96-4.3,7.96-8.3v-47.27c0-4-1.61-22.94-7.96-22.94h-1.53c-4.13,0-5.51,8.01-5.97,14.72l-55.2-53.28v-36.75c0-6.1-4.94-34.59-11.03-34.59h-1.48c-6.09,0-11.04,28.48-11.04,34.59v14.02l-7.85-7.57v-28.71c1.91.46,3.5.94,4.54,1.41l2.33-17.82s-2.99-2.84-7.55-7.21c-1.53-10.51-5.59-27.97-10.36-27.97h-1.48c-2.41,0-4.64,4.48-6.46,10.25-12.31-12.04-24.85-24.63-27.1-28.07-4.65-7.11-22.33-70.39-25.65-112.71S192.43,0,192.43,0c0,0-16.1,30.4-19.43,72.73-3.34,42.32-21,105.6-25.65,112.71-2.22,3.4-14.4,15.63-26.51,27.49-1.77-5.49-3.93-9.67-6.26-9.67h-1.48c-4.65,0-8.61,16.52-10.24,27.1-5.03,4.83-8.44,8.07-8.44,8.07l2.33,17.82c1.18-.54,3.06-1.07,5.31-1.6v28.14l-7.85,7.58v-13.29c0-6.09-4.94-34.57-11.04-34.57h-1.48c-6.09,0-11.03,28.48-11.03,34.59v36.02l-55.72,53.79c-1-6.67-3.1-14.49-7.19-14.49h-1.53C-.14,352.42,0,371.36,0,375.36v47.27c0,4-.14,8.3,6.21,8.3h0ZM259.06,250.95v9.87l-11.64-11.25s5.07.53,11.64,1.38ZM125.61,250.85c6.19-.79,10.87-1.27,10.87-1.27l-10.87,10.5v-9.22h0Z"/>
</svg>