<?xml version="1.0" encoding="UTF-8"?>
<svg id="Layer_1" data-name="Layer 1" xmlns="http://www.w3.org/2000/svg" viewBox="0 0 556.58 798.45">
  <defs>
    <style>
      .cls-1 {
        fill: #fff;
        stroke: #fff;
        stroke-miterlimit: 44.44;
        stroke-width: 11.11px;
      }
    </style>
  </defs>
  <g id="SVGRepo_iconCarrier" data-name="SVGRepo iconCarrier">
    <path class="cls-1" d="M545.87,68.46c-7.74-7.46-20.07-7.23-27.53.51-.04.04-.08.08-.11.12l-168.55,162.13c-3.38-16.87-6.1-39.51-8.97-70.48C326.97,10.66,277.99,5.58,277.99,5.58c0,0-47.51,3.24-66.98,152.86-3.37,25.66-6.31,45.54-9.6,61.1L47.85,60.17c-7.32-7.28-19.15-7.24-26.43.07s-7.24,19.15.07,26.43l166.92,173.53c-17.25,27.14-47.14,19.56-118.02,44.96,0,0-15.78,36.13-.83,62.52,36.54,7.21,72.36,17.7,107.01,31.35L12.58,557.05c-8.1,6.53-9.38,18.39-2.85,26.5,6.53,8.1,18.39,9.38,26.5,2.85.87-.7,1.68-1.48,2.41-2.32l165.12-159.13c3.18,1.81,6.79,2.72,10.44,2.64l30.32,244.75-86.68,15.01-7.94-19.85s-13.46,70.99-.74,94.72l20.72,23.7,9.83-20.57-10.05-19.07,80.21,16.43s1.27,18.76,13.71,18.95c12.44.19,16.05-18.37,16.05-18.37l82.68-14.11-10.72,18.57,9.05,20.96,22.15-22.27c13.93-22.69,2.74-94.72,2.74-94.72l-8.72,19.68-85.66-18.75,39.97-243.95c6,.4,11.88-1.85,16.08-6.15l163.47,169.66c7.32,7.28,19.15,7.24,26.43-.07s7.24-19.15-.07-26.43h0l-162.46-166.22c33.1-10.89,67.02-19.15,101.42-24.71,15.92-25.8,1.16-62.41,1.16-62.41-64.58-26.36-95.33-23.05-112.15-43.11l179.51-172.93c8.07-7.24,8.75-19.65,1.51-27.72-.05-.05-.09-.1-.14-.16Z"/>
  </g>
</svg>