<?xml version="1.0" encoding="UTF-8"?>
<svg id="Layer_1" data-name="Layer 1" xmlns="http://www.w3.org/2000/svg" viewBox="0 0 529.27 244.08">
  <defs>
    <style>
      .cls-1 {
        fill: white;
        stroke-width: 0px;
      }
    </style>
  </defs>
  <g>
    <path class="cls-1" d="M165.11,26.13c.59,0,1.15.23,1.57.63l63.65,61.09c3.47,3.47,7.98,12.29,9.21,17.04,0,.03.02.07.03.1.3,1.17.59,2.38.88,3.62,3.65,15.35,8.64,36.37,56.83,59.38,9.29,4.44,38.44,24.73,35.23,73.98-.08,1.19-1.08,2.1-2.26,2.1h-28.55c-1.23,0-2.24-.97-2.27-2.2-.29-13.29-5.17-37.7-35.51-46.85-27-8.14-28.98-18.57-31.07-29.61-.83-4.39-1.69-8.92-4.12-13.19-1.89-3.33-6.14-7.43-11.06-12.16-4.87-4.69-10.38-10-12.71-13.97-3.55-6.06-3.97-18.94-3.78-25.53.03-1.22-.91-2.24-2.12-2.31l-2.46-.15c-1.28-.08-2.37.91-2.41,2.2-.16,5.86-.07,21.14,4.73,29.34,2.82,4.81,8.45,10.23,13.89,15.47,4.15,4,8.44,8.13,9.84,10.58,1.85,3.25,2.56,7.03,3.32,11.03,2.75,14.53,7.15,26.33,35.93,35.01,26.29,7.93,30.45,28.64,30.63,40.05.02,1.27-1,2.3-2.27,2.3h-41.36c-.89,0-1.69-.52-2.06-1.33-3.07-6.66-10.63-18.39-27.45-25.31-16.99-7-17.34-18.73-17.75-32.3l-.03-.93c0-.18,0-.37.05-.54.16-.76.26-1.19.26-1.19h-.36l-.02-.53c-.04-1.22-1.04-2.19-2.27-2.19h-47.9c-.6,0-1.18-.24-1.6-.66l-43.85-43.85c-1.43-1.43-.42-3.87,1.6-3.87h39.39c.6,0,1.18.24,1.6.66l13.52,13.52c.89.89,2.32.89,3.21,0l1.74-1.74c.88-.89.88-2.32,0-3.2l-15.56-15.57c-.43-.43-1-.66-1.6-.66h-53.44c-.6,0-1.17-.24-1.6-.66l-38.65-38.3c-1.44-1.43-.43-3.88,1.6-3.88h100.61c.6,0,1.18.24,1.6.66l15.46,15.45c.89.89,2.32.88,3.21,0l1.74-1.74c.89-.89.89-2.32,0-3.21l-17.51-17.5c-.43-.43-1-.66-1.6-.66H46.14c-.6,0-1.18-.24-1.6-.66L.67,30c-1.43-1.43-.42-3.87,1.6-3.87h162.84Z"/>
    <path class="cls-1" d="M484.73,73.87l43.87-43.87c1.43-1.43.42-3.87-1.6-3.87h-162.81c-.6,0-1.18.24-1.6.66l-33.67,33.68c-1.1,1.1-1.72,2.6-1.72,4.16v7.64c0,6.62-4.97,12.19-11.57,12.95-10.65,1.23-23.4,5.52-23.65,18.96-.1,5.21,1.49,9.31,4.85,12.54,7.48,7.18,21.48,7.9,26.81,7.9,1.2,0,2.19.93,2.27,2.13l.15,2.48c.08,1.3-.95,2.4-2.25,2.41-6.12.03-22.36-.81-31.81-9.85-4.8-4.6-7.16-10.56-7.02-17.74.27-14.43,10.87-23.59,29.84-25.78,3.07-.36,5.38-2.94,5.38-6v-22.7c0-3.11-2.43-5.75-5.53-6.01l-23.13-1.93c-4.24-.36-7.81-3.49-8.7-7.66-.02-.11-.04-.22-.05-.33l-.17-1.92c-.58-2.96-3.18-5.1-6.2-5.1l-50.26-.06c-8.89,0-10.81,5.32-10.8,8,0,10.14,1.55,19.05,3.44,25.75,1.07,3.79,2.9,7.32,5.42,10.36l7.03,8.48c.06.07.12.13.18.19,3.95,3.73,7.52,7.57,10.37,12.52.18.31.35.62.52.94,1.63,3,2.99,6.42,4.03,10.44.31,1.22.61,2.47.92,3.75,3.5,14.76,7.86,33.11,53.03,54.68,9.99,4.78,16.13,10.78,21.72,17.3.43.5,1.06.79,1.72.79h54.17c.6,0,1.18-.24,1.6-.66l43.85-43.85c1.43-1.43.42-3.87-1.6-3.87h-39.39c-.6,0-1.18.24-1.6.66l-13.52,13.52c-.89.89-2.32.89-3.21,0l-1.74-1.74c-.89-.89-.89-2.32,0-3.21l15.57-15.57c.43-.43,1-.66,1.6-.66h53.83c.6,0,1.18-.24,1.6-.66l38.3-38.3c1.43-1.43.42-3.87-1.6-3.87h-100.66c-.6,0-1.18.24-1.6.66l-15.45,15.45c-.89.89-2.32.89-3.21,0l-1.74-1.74c-.89-.89-.89-2.32,0-3.21l17.5-17.5c.43-.43,1-.66,1.6-.66h115.1c.6,0,1.18-.24,1.6-.66v-.02ZM270.26,53.08h-17.4c-1.25,0-2.27-1.02-2.27-2.27v-2.46c0-1.25,1.02-2.27,2.27-2.27h17.4c1.25,0,2.27,1.02,2.27,2.27v2.46c0,1.25-1.02,2.27-2.27,2.27Z"/>
  </g>
  <path class="cls-1" d="M281.45,9.49c1.73-.4,3.22,1.26,2.64,2.94l-1.93,5.65c-.31.92-1.18,1.54-2.14,1.54h-58.7c-.97,0-1.84-.62-2.15-1.53l-1.94-5.68c-.58-1.69.93-3.35,2.67-2.94,1.91.46,4.04.75,6.37.75,8.51,0,18.14-6.14,23.1-9.78.79-.58,1.86-.58,2.66,0,4.96,3.59,14.72,9.78,23.05,9.78,2.35,0,4.47-.28,6.38-.72h-.01Z"/>
</svg>