<?xml version="1.0" encoding="iso-8859-1"?>
<!-- Uploaded to: SVG Repo, www.svgrepo.com, Generator: SVG Repo Mixer Tools -->
<svg fill="#000000" height="800px" width="800px" version="1.1" id="Layer_1" xmlns="http://www.w3.org/2000/svg" xmlns:xlink="http://www.w3.org/1999/xlink" 
	 viewBox="0 0 500.004 500.004" xml:space="preserve">
<g>
	<g>
		<path d="M382.458,250.004L494.066,138.4c7.78-7.78,7.78-20.448,0-28.236L389.73,5.828C385.97,2.068,380.958,0,375.611,0
			c-5.348,0-10.356,2.068-14.112,5.828l-111.604,111.6L138.546,6.088c-3.756-3.76-8.768-5.832-14.112-5.832
			c-5.352,0-10.364,2.072-14.124,5.832L5.93,110.464c-3.756,3.752-5.828,8.768-5.828,14.116c0,5.348,2.072,10.36,5.828,14.116
			l111.344,111.348L5.938,361.388c-7.78,7.78-7.78,20.444,0,28.232l104.336,104.34c3.756,3.752,8.772,5.828,14.116,5.828
			s10.356-2.072,14.116-5.828l111.336-111.336l111.54,111.54c3.892,3.896,9,5.84,14.116,5.84c5.112,0,10.224-1.944,14.116-5.84
			L494.002,389.78c7.784-7.784,7.784-20.448,0-28.236L382.458,250.004z M167.326,278.444c-6.368,0-11.528-5.16-11.524-11.524
			c-0.004-6.364,5.156-11.532,11.524-11.528c6.364,0.004,11.52,5.168,11.52,11.528C178.846,273.284,173.69,278.444,167.326,278.444z
			 M200.15,311.276c-6.368,0-11.528-5.168-11.524-11.528c-0.004-6.368,5.156-11.532,11.524-11.528c6.36,0,11.524,5.16,11.524,11.528
			C211.674,306.108,206.51,311.276,200.15,311.276z M200.594,245.18c-6.376,0-11.532-5.164-11.524-11.524
			c-0.008-6.364,5.148-11.536,11.524-11.532c6.36,0.004,11.524,5.168,11.524,11.532C212.118,240.016,206.954,245.18,200.594,245.18z
			 M233.198,344.316c-6.376,0-11.532-5.168-11.528-11.528c-0.004-6.368,5.152-11.532,11.528-11.532
			c6.356,0,11.524,5.164,11.524,11.532C244.723,339.148,239.554,344.316,233.198,344.316z M233.418,278.004
			c-6.368,0-11.528-5.16-11.528-11.524c0-6.364,5.16-11.532,11.528-11.528c6.36,0,11.524,5.164,11.524,11.528
			S239.778,278.004,233.418,278.004z M233.838,211.932c-6.368,0-11.532-5.16-11.524-11.524c-0.008-6.368,5.156-11.536,11.524-11.528
			c6.364,0,11.524,5.16,11.524,11.528C245.362,206.772,240.202,211.932,233.838,211.932z M266.655,156.064
			c6.364,0,11.524,5.16,11.524,11.528c0,6.364-5.16,11.524-11.524,11.524c-6.368,0-11.528-5.16-11.528-11.524
			S260.287,156.056,266.655,156.064z M266.458,311.048c-6.368,0-11.528-5.16-11.524-11.524c-0.004-6.364,5.156-11.536,11.524-11.528
			c6.364,0,11.524,5.164,11.524,11.528C277.982,305.888,272.822,311.048,266.458,311.048z M266.666,244.76
			c-6.368,0-11.536-5.164-11.528-11.52c-0.008-6.372,5.16-11.54,11.528-11.536c6.364,0,11.52,5.164,11.52,11.536
			C278.186,239.596,273.03,244.76,266.666,244.76z M299.478,188.888c6.36,0,11.524,5.164,11.524,11.532
			c0,6.36-5.164,11.524-11.524,11.524c-6.368,0-11.528-5.164-11.524-11.524C287.951,194.052,293.111,188.884,299.478,188.888z
			 M299.71,277.8c-6.368,0-11.536-5.164-11.528-11.528c-0.008-6.364,5.16-11.532,11.528-11.528c6.36,0.004,11.52,5.168,11.52,11.528
			C311.23,272.636,306.07,277.8,299.71,277.8z M332.522,244.988c-6.372,0-11.528-5.164-11.524-11.524
			c-0.004-6.368,5.152-11.54,11.524-11.536c6.36,0,11.524,5.168,11.524,11.536C344.046,239.824,338.882,244.988,332.522,244.988z"/>
	</g>
</g>
</svg>