<?xml version="1.0" encoding="utf-8"?>

<!-- Uploaded to: SVG Repo, www.svgrepo.com, Generator: SVG Repo Mixer Tools -->
<svg width="800px" height="800px" viewBox="-32.45 0 171.816 171.816" xmlns="http://www.w3.org/2000/svg">
  <g id="Group_3276" data-name="Group 3276" transform="translate(-500.913 -91.513)">
    <g id="Group_3270" data-name="Group 3270">
      <path id="Path_1699" data-name="Path 1699" d="M600.322,205.356a16.486,16.486,0,0,1-16.467-16.467,6.474,6.474,0,0,0-6.467-6.467h-4.119a5,5,0,0,1,0-10h4.119a16.486,16.486,0,0,1,16.467,16.467,6.474,6.474,0,0,0,6.467,6.467,5,5,0,0,1,0,10Z" fill="none" stroke="#ff9e20" stroke-miterlimit="10" stroke-width="5"/>
    </g>
    <path id="Path_1700" data-name="Path 1700" d="M522.052,198.867c-18.834,18.834-6.444,51.523,20.175,52.423q.633.021,1.27.021t1.27-.021c26.62-.9,39.009-33.589,20.175-52.423l-42.891-42.891c-18.834-18.834-6.444-51.523,20.175-52.423q.633-.021,1.27-.021t1.27.021c26.62.9,39.009,33.589,20.175,52.423Z" fill="none" stroke="#ff9e20" stroke-miterlimit="10" stroke-width="5"/>
    <g id="Group_3271" data-name="Group 3271">
      <path id="Path_1701" data-name="Path 1701" d="M543.5,260.829q-.8,0-1.589-.027a39.2,39.2,0,0,1-35.548-25.2,39.928,39.928,0,0,1,8.961-43.469l14.715-14.715-14.715-14.715a39.928,39.928,0,0,1-8.961-43.469,39.2,39.2,0,0,1,35.545-25.2c1.06-.036,2.124-.035,3.18,0a39.2,39.2,0,0,1,35.548,25.2,39.93,39.93,0,0,1-8.961,43.469l-14.715,14.715,14.715,14.715a39.93,39.93,0,0,1,8.961,43.469,39.2,39.2,0,0,1-35.545,25.2C544.559,260.82,544.03,260.829,543.5,260.829Zm0-69.947L528.783,205.6a21.188,21.188,0,0,0-4.714,23.022,20.159,20.159,0,0,0,18.481,13.158c.626.021,1.269.021,1.9,0a20.156,20.156,0,0,0,18.478-13.158,21.188,21.188,0,0,0-4.714-23.022Zm0-77.832c-.318,0-.636,0-.951.016a20.158,20.158,0,0,0-18.479,13.158,21.188,21.188,0,0,0,4.714,23.022L543.5,163.961l14.715-14.715a21.19,21.19,0,0,0,4.714-23.022,20.155,20.155,0,0,0-18.48-13.158C544.134,113.055,543.816,113.05,543.5,113.05Z" fill="none" stroke="#ff9e20" stroke-miterlimit="10" stroke-width="5"/>
    </g>
    <g id="Group_3275" data-name="Group 3275">
      <g id="Group_3272" data-name="Group 3272">
        <path id="Path_1702" data-name="Path 1702" d="M572.48,172.421H514.515a5,5,0,0,1-5-5h0a5,5,0,0,1,5-5H572.48a5,5,0,0,1,5,5h0A5,5,0,0,1,572.48,172.421Z" fill="#031b2e" stroke="#ff9e20" stroke-miterlimit="10" stroke-width="5"/>
      </g>
      <g id="Group_3273" data-name="Group 3273">
        <path id="Path_1703" data-name="Path 1703" d="M572.48,182.421H514.515a5,5,0,0,1-5-5h0a5,5,0,0,1,5-5H572.48a5,5,0,0,1,5,5h0A5,5,0,0,1,572.48,182.421Z" fill="#031b2e" stroke="#ff9e20" stroke-miterlimit="10" stroke-width="5"/>
      </g>
      <g id="Group_3274" data-name="Group 3274">
        <path id="Path_1704" data-name="Path 1704" d="M572.48,192.421H514.515a5,5,0,0,1-5-5h0a5,5,0,0,1,5-5H572.48a5,5,0,0,1,5,5h0A5,5,0,0,1,572.48,192.421Z" fill="#031b2e" stroke="#ff9e20" stroke-miterlimit="10" stroke-width="5"/>
      </g>
    </g>
  </g>
</svg>