<?xml version="1.0" encoding="UTF-8"?>
<svg id="Layer_1" data-name="Layer 1" xmlns="http://www.w3.org/2000/svg" viewBox="0 0 800 649.69">
  <defs>
    <style>
      .cls-1 {
        fill: #000;
        stroke-width: 0px;
      }
    </style>
  </defs>
  <path class="cls-1" d="M621.34,182.78l-6.75,8.18c-14.9,18.03-39.13,18.03-54.02,0-11.74-14.22-14.57-35.8-7.04-53.69,2.39-5.69.52-12.65-4.18-15.55-4.7-2.9-10.45-.64-12.84,5.06-11.3,26.85-7.05,59.22,10.56,80.54,22.34,27.05,58.7,27.05,81.04,0l6.75-8.18c7.28-8.82,15.85-15.17,24.97-19.06,6.68-10.13,12.84-19.43,18.3-27.61-20.66,1.16-41.04,11.26-56.78,30.32Z"/>
  <path class="cls-1" d="M780.36,393.15c-17.19,7.94-37.92,4.96-51.57-7.43-8.39-7.61-13.01-17.74-13.01-28.51s4.62-20.89,13.01-28.51l7.85-7.13c25.11-22.79,34.04-54.79,26.79-84.13,10.69-7.92,17.92-13.45,20.33-15.64,21.65-19.65,21.65-51.62,0-71.26-21.65-19.65-56.88-19.65-78.53,0-17.63,16-231.13,264.52-240.21,275.09-3.45,4.01-3.06,9.73.91,13.32,2.15,1.96,5,2.95,7.86,2.95,2.4,0,4.81-.7,6.82-2.13,9.2-6.51,181.91-128.68,262.84-187.66,1.64,19.8-5.87,40.1-22.51,55.21l-7.85,7.13c-12.59,11.42-19.52,26.61-19.52,42.76s6.93,31.34,19.52,42.76c12.84,11.65,29.84,17.76,47.1,17.76,10.27,0,20.64-2.16,30.26-6.61,5.47-2.53,7.64-8.59,4.86-13.55-2.78-4.96-9.47-6.93-14.94-4.41ZM736.64,193.3h0s-15.71,14.25-15.71,14.25h0c2.67,2.42,5.09,4.98,7.29,7.64l-7.29,6.62c-2.17,1.97-5.01,2.95-7.85,2.95s-5.69-.98-7.85-2.95c-4.34-3.94-4.34-10.32,0-14.25l31.41-28.51c4.34-3.94,11.37-3.94,15.71,0,4.34,3.94,4.34,10.32,0,14.25l-8.29,7.52c-2.29-2.6-4.76-5.12-7.41-7.52Z"/>
  <g>
    <path class="cls-1" d="M415.15,395.06l251.37,47.55c5.74,1.09,11.38-2.06,13.5-7.43,2.1-5.45.02-11.56-4.93-14.61l-117.54-72.95c-47.46-29.5-101.22-47.17-156.83-51.69l-11.95,48.23,26.39,50.91h0Z"/>
    <path class="cls-1" d="M253.86,343.01l18.28-52.61-65.37-2.68c-1.85-9.63-5.16-19.04-9.8-27.98-14.86-28.65-41.55-48.52-73.26-54.53-56.49-10.63-111.19,26.64-121.85,83.15-4.39,23.16-.98,46.47,9.86,67.36,14.87,28.67,41.55,48.55,73.22,54.54,46.96,8.86,92.61-15.36,112.85-56.23l66.98,12.65-10.92-23.69ZM92.66,369.41c-32.92-6.27-56.29-40.22-49.94-73.34,6.38-34.01,39.37-56.47,73.36-50.08,19.08,3.63,35.13,15.6,44.08,32.85,6.52,12.57,8.58,26.59,5.93,40.59-6.44,33.98-39.38,56.44-73.43,49.98Z"/>
    <path class="cls-1" d="M502.76,647.34c4.67-3.43,6.22-9.77,3.69-14.93l-139.19-285.37-.19-.37,31.54-138.15c17.68-.88,34.94-6.3,50.28-16.06,23.55-14.91,39.83-38.08,45.91-65.3,5.36-23.98,2.12-49.11-9.15-70.84-14.2-27.38-39.68-47.02-69.8-53.8-56.13-12.5-112,22.95-124.58,79.01-5.39,23.92-2.11,49.1,9.18,70.85,8.04,15.5,19.69,28.47,33.68,38.06h0l-57.64,150.86c4.08,9.12,114.63,236.13,127.73,246.14l83.2,59.01c4.23,3.94,10.68,4.35,15.34.9ZM379.27,165.6c-32.42-7.25-54.78-42.38-47.51-75.03,7.56-33.73,41.27-55.05,75.03-47.55,18.12,4.08,33.44,15.89,42,32.4,6.79,13.09,8.75,28.25,5.49,42.64-3.65,16.41-13.45,30.31-27.58,39.32-14.18,8.97-31.03,11.89-47.43,8.22ZM326.08,363.48c-13.66-2.11-23.08-14.5-21.78-28.08l-.02-.04c.06-.5.07-1,.16-1.52.85-5.38,3.3-10.1,6.79-13.77,5.69-5.92,14.07-9.1,22.81-7.72,14.16,2.21,23.78,15.47,21.53,29.55,0,.13.14.18.11.3-1.21,7.1-5.32,13.1-10.79,16.93-5.26,3.67-11.96,5.46-18.81,4.34Z"/>
  </g>
</svg>