<svg fill="#ff9e20" xmlns="http://www.w3.org/2000/svg" xml:space="preserve" viewBox="0 0 66 82.5"><path d="M9.335 57.48c0 4.15 3.36 7.52 7.51 7.52s7.52-3.37 7.52-7.52v-25.9H9.335v25.9zm9.16-20.17c0-.78.65-1.43 1.44-1.43.79 0 1.43.65 1.43 1.43v18.82c0 .79-.64 1.43-1.43 1.43-.79 0-1.44-.64-1.44-1.43V37.31zm-6.17 0c0-.78.65-1.43 1.44-1.43.78 0 1.43.65 1.43 1.43v18.82a1.436 1.436 0 0 1-2.87 0V37.31zM34.235 57.48c0 4.15 3.37 7.52 7.52 7.52 4.15 0 7.52-3.37 7.52-7.52v-25.9h-15.04v25.9zm9.17-20.17c0-.78.65-1.43 1.44-1.43.78 0 1.43.65 1.43 1.43v18.82a1.436 1.436 0 0 1-2.87 0V37.31zm-6.17 0c0-.78.64-1.43 1.43-1.43.79 0 1.44.65 1.44 1.43v18.82c0 .79-.65 1.43-1.44 1.43-.79 0-1.43-.64-1.43-1.43V37.31zM63.413 14.83c-.877 0-1.587.71-1.587 1.586v.504H59.66a1.01 1.01 0 0 0-1.009 1.009v1.622h-11.84V9.94c0-3.49-2.84-6.33-6.329-6.33h-5.004V2.533c0-.846-.685-1.531-1.531-1.531h-9.502c-.846 0-1.532.685-1.532 1.531v1.079h-4.795a6.336 6.336 0 0 0-6.329 6.328v9.612H2.837a1.843 1.843 0 0 0 0 3.686h3.79v4.44c0 1.049.851 1.9 1.9 1.9h16.64a1.9 1.9 0 0 0 1.9-1.9v-4.44h4.468v4.44c0 1.049.85 1.9 1.9 1.9h16.639a1.9 1.9 0 0 0 1.9-1.9v-4.44h6.677v1.623c0 .557.452 1.009 1.01 1.009h2.165v.503a1.587 1.587 0 0 0 3.174 0v-9.956c0-.876-.71-1.587-1.587-1.587zM15.234 9.94a2.888 2.888 0 0 1 2.884-2.884h4.795v1.24c0 .847.686 1.532 1.532 1.532h9.502c.846 0 1.531-.685 1.531-1.531V7.055h5.004a2.888 2.888 0 0 1 2.884 2.884v9.612H15.234V9.94z"/></svg>