<?xml version="1.0" encoding="iso-8859-1"?>
<!-- Uploaded to: SVG Repo, www.svgrepo.com, Generator: SVG Repo Mixer Tools -->
<svg fill="#000000" height="800px" width="800px" version="1.1" id="Layer_1" xmlns="http://www.w3.org/2000/svg" xmlns:xlink="http://www.w3.org/1999/xlink" 
	 viewBox="0 0 512.107 512.107" xml:space="preserve">
<g>
	<g>
		<path d="M498.251,261.739l-28.864-17.728V192c0-11.797-9.557-21.333-21.333-21.333S426.72,180.203,426.72,192v25.813
			l-21.333-13.12v-55.36c0-11.797-9.557-21.333-21.333-21.333s-21.333,9.536-21.333,21.333v29.163l-21.205-13.013
			c-0.021-12.949-0.107-21.397-0.128-22.784c0-30.955-5.035-58.411-14.997-81.621C323.701,54.827,298.933,0,256.053,0
			s-67.648,54.827-70.336,61.077c-9.963,23.211-14.997,50.667-14.997,81.365c-0.021,1.429-0.107,9.984-0.128,23.04l-21.205,13.013
			v-29.163c0-11.797-9.557-21.333-21.333-21.333s-21.333,9.536-21.333,21.333v55.381l-21.333,13.099V192
			c0-11.797-9.557-21.333-21.333-21.333S42.72,180.203,42.72,192v52.011l-28.843,17.728c-8.448,4.672-13.824,13.696-13.824,23.403
			v43.669c0,8.405,3.84,16.171,10.517,21.248c4.736,3.627,10.368,5.525,16.149,5.525c2.368,0,4.757-0.32,7.104-0.96
			c2.133-0.597,4.16-1.493,6.016-2.709c35.115-22.805,85.632-31.616,133.824-37.931c1.344,28.608,3.285,56.96,6.059,82.091
			l-43.733,35.328c-5.013,4.053-7.936,10.133-7.936,16.597v39.616c0,9.045,4.949,17.301,12.907,21.568
			c6.635,3.563,14.421,3.84,21.205,0.96l93.888-29.077l93.888,29.077c3.051,1.301,6.336,1.963,9.621,1.963
			c3.968,0,7.957-0.96,11.584-2.923c7.957-4.267,12.907-12.523,12.907-21.568v-39.531c0-6.443-2.901-12.544-7.915-16.597
			l-43.755-35.371c2.752-25.152,4.715-53.525,6.059-82.133c48.064,6.293,98.667,15.104,133.824,37.931
			c1.856,1.216,3.883,2.112,6.016,2.709c2.347,0.64,4.736,0.96,7.104,0.96c5.781,0,11.413-1.899,16.171-5.525
			c6.656-5.077,10.496-12.843,10.496-21.248v-43.669C512.053,275.435,506.677,266.411,498.251,261.739z M341.387,458.261v4.565
			l-78.464-24.299c-2.048-0.64-5.291-0.96-7.424-0.96c-2.133,0-4.267,0.32-6.315,0.96l-78.464,24.299v-4.651l85.333-68.907
			L341.387,458.261z"/>
	</g>
</g>
</svg>